<?xml version="1.0" encoding="utf-8"?>
<svg viewBox="0 0 500 500" xmlns="http://www.w3.org/2000/svg">
  <title>empty_cart</title>
  <path d="M 27.991 468.912 C 34.678 483.67 48.871 490.005 48.871 490.005 C 48.871 490.005 52.223 472.413 45.536 457.658 C 38.849 442.901 24.654 436.568 24.654 436.568 C 24.654 436.568 21.305 454.155 27.991 468.912 Z" fill="#2f2e41" style=""/>
  <path d="M 32.59 464.06 C 44.662 472.702 49.312 489.867 49.312 489.867 C 49.312 489.867 34.388 493.023 22.314 484.378 C 10.24 475.736 5.59 458.57 5.59 458.57 C 5.59 458.57 20.516 455.417 32.59 464.06 Z" style="fill: rgb(168, 218, 220);"/>
  <rect x="227.943" y="35.606" width="75.33" height="1.282" fill="#f2f2f2" style=""/>
  <rect x="281.752" y="36.564" width="1.078" height="11.845" fill="#f2f2f2" style=""/>
  <rect x="248.929" y="36.564" width="1.078" height="11.845" fill="#f2f2f2" style=""/>
  <rect x="266.147" y="97.064" width="75.33" height="1.282" fill="#f2f2f2" style=""/>
  <rect x="286.594" y="85.541" width="1.078" height="11.845" fill="#f2f2f2" style=""/>
  <rect x="319.413" y="85.541" width="1.078" height="11.845" fill="#f2f2f2" style=""/>
  <rect x="366.226" y="125.873" width="75.33" height="1.282" fill="#f2f2f2" style=""/>
  <rect x="386.675" y="114.35" width="1.078" height="11.845" fill="#f2f2f2" style=""/>
  <rect x="419.494" y="114.35" width="1.078" height="11.845" fill="#f2f2f2" style=""/>
  <rect x="358.692" y="422.926" width="75.33" height="1.282" fill="#f2f2f2" style=""/>
  <rect x="379.141" y="411.405" width="1.078" height="11.845" fill="#f2f2f2" style=""/>
  <rect x="411.963" y="411.405" width="1.078" height="11.845" fill="#f2f2f2" style=""/>
  <rect x="230.098" y="217.421" width="75.33" height="1.282" fill="#f2f2f2" style=""/>
  <rect x="250.545" y="205.899" width="1.078" height="11.845" fill="#f2f2f2" style=""/>
  <rect x="283.367" y="205.899" width="1.078" height="11.845" fill="#f2f2f2" style=""/>
  <rect x="253.772" y="371.712" width="75.33" height="1.282" fill="#f2f2f2" style=""/>
  <rect x="274.217" y="360.186" width="1.078" height="11.845" fill="#f2f2f2" style=""/>
  <rect x="307.04" y="360.186" width="1.078" height="11.845" fill="#f2f2f2" style=""/>
  <rect x="374.3" y="324.977" width="75.33" height="1.282" fill="#f2f2f2" style=""/>
  <rect x="394.746" y="313.454" width="1.078" height="11.845" fill="#f2f2f2" style=""/>
  <rect x="427.569" y="313.454" width="1.078" height="11.845" fill="#f2f2f2" style=""/>
  <polygon points="200.402 462.158 72.996 462.158 72.996 461.067 199.484 461.067 199.484 408.174 83.705 408.174 78.082 394.23 78.909 393.758 84.282 407.082 200.402 407.082 200.402 462.158" fill="#2f2e41" style=""/>
  <circle cx="156.78851" cy="726.03301" r="17.88673" fill="#3f3d56" transform="matrix(0.538066, 0, 0, 0.640202, 5.589893, 12.615768)" style=""/>
  <circle cx="333.10053" cy="726.03301" r="17.88673" fill="#3f3d56" transform="matrix(0.538066, 0, 0, 0.640202, 5.589893, 12.615768)" style=""/>
  <circle cx="540.92726" cy="346.153" r="11.07274" fill="#3f3d56" transform="matrix(0.538066, 0, 0, 0.640202, 5.589893, 12.615768)" style=""/>
  <path d="M 214.028 390.178 L 70.824 390.178 L 39.837 269.668 L 245.939 269.668 L 245.75 270.379 L 214.028 390.178 Z M 71.503 389.087 L 213.358 389.087 L 244.691 270.76 L 41.077 270.76 L 71.503 389.087 Z" fill="#2f2e41" style=""/>
  <polygon points="202.85 383.907 77.069 383.907 49.849 277.029 230.879 277.029 230.714 277.658 202.85 383.907" fill="#f2f2f2" style=""/>
  <polygon points="248.507 258.901 247.62 258.623 253.669 231.499 288.853 231.499 288.853 232.59 254.377 232.59 248.507 258.901" fill="#2f2e41" style=""/>
  <rect x="49.849" y="306.201" width="185.79" height="1.091" fill="#2f2e41" style=""/>
  <rect x="60.181" y="346.383" width="164.819" height="1.091" fill="#2f2e41" style=""/>
  <rect x="142.428" y="270.214" width="0.916" height="119.419" fill="#2f2e41" style=""/>
  <rect x="246.678" y="307.322" width="119.598" height="0.919" transform="matrix(0.055012, -0.998486, 0.997231, 0.077786, -142.237701, 611.995605)" fill="#2f2e41" style=""/>
  <rect x="180.12" y="305.867" width="0.916" height="119.568" transform="matrix(0.997007, -0.077314, 0.05471, 0.99876, -95.81852, -21.31266)" fill="#2f2e41" style=""/>
  <rect y="489.568" width="482.107" height="1.282" fill="#2f2e41" style="" x="5.59"/>
  <path d="M 325.961 52.23 C 325.961 52.23 333.826 78.868 328.985 82.964 C 324.144 87.063 345.322 120.527 345.322 120.527 L 370.734 112.33 L 356.818 84.328 C 356.818 84.328 355.004 56.329 355.004 52.23 C 355.004 48.133 325.961 52.23 325.961 52.23 Z" fill="#a0616a" style=""/>
  <path d="M 325.961 52.23 C 325.961 52.23 333.826 78.868 328.985 82.964 C 324.144 87.063 345.322 120.527 345.322 120.527 L 370.734 112.33 L 356.818 84.328 C 356.818 84.328 355.004 56.329 355.004 52.23 C 355.004 48.133 325.961 52.23 325.961 52.23 Z" opacity="0.1" style=""/>
  <path d="M 312.757 242.101 C 312.757 242.101 310.461 276.249 312.757 294.007 C 315.052 311.765 318.497 360.939 318.497 360.939 C 318.497 360.939 318.497 453.827 331.125 455.192 C 343.753 456.557 352.938 457.924 354.087 452.459 C 355.234 446.995 348.346 444.263 351.791 441.532 C 355.234 438.798 356.384 429.237 351.791 418.311 C 347.199 407.384 351.791 296.74 351.791 296.74 L 373.602 366.402 C 373.602 366.402 375.899 423.773 378.197 431.97 C 380.491 440.165 375.899 455.192 383.935 456.557 C 391.973 457.924 401.158 449.726 405.749 446.995 C 410.341 444.263 398.861 444.263 401.158 442.899 C 403.453 441.532 410.341 437.434 408.046 436.066 C 405.749 434.702 403.453 369.134 403.453 369.134 C 403.453 369.134 397.137 229.123 389.102 223.66 C 381.065 218.195 375.899 227.607 375.899 227.607 L 312.757 242.101 Z" style="fill: rgb(29, 53, 87);"/>
  <path d="M 333.423 449.726 L 333.423 460.656 C 333.423 460.656 323.09 490.362 333.423 490.362 C 343.753 490.362 351.791 493.438 351.791 489.34 L 351.791 452.459 L 333.423 449.726 Z" fill="#2f2e41" style=""/>
  <path d="M 401.158 449.71 L 401.158 460.636 C 401.158 460.636 411.488 490.341 401.158 490.341 C 390.825 490.341 382.787 493.42 382.787 489.321 L 382.787 452.44 L 401.158 449.71 Z" fill="#2f2e41" style=""/>
  <circle cx="625.28185" cy="54.4082" r="38.40579" fill="#a0616a" transform="matrix(0.538066, 0, 0, 0.640202, 5.589893, 12.615768)" style=""/>
  <path d="M 335.717 93.208 C 335.717 93.208 341.458 113.698 350.643 109.6 L 359.826 105.503 L 375.899 236.637 C 375.899 236.637 363.272 258.491 344.9 244.833 C 326.535 231.172 335.717 93.208 335.717 93.208 Z" style="fill: rgb(69, 123, 157);"/>
  <path d="M 351.791 89.113 L 356.958 76.135 C 356.958 76.135 387.381 93.208 391.973 98.674 C 396.562 104.137 396.562 112.33 396.562 112.33 L 388.528 146.481 C 388.528 146.481 390.825 221.611 390.825 224.343 C 390.825 227.074 398.861 242.101 393.12 236.637 C 387.381 231.172 386.232 225.707 381.64 233.904 C 377.047 242.101 366.714 251.662 366.714 251.662 L 351.791 89.113 Z" style="fill: rgb(29, 53, 87);"/>
  <path d="M 391.973 187.461 L 388.528 225.707 C 388.528 225.707 367.864 247.563 372.456 248.929 C 377.047 250.295 379.344 244.833 379.344 244.833 C 379.344 244.833 387.381 254.395 391.973 248.929 C 396.562 243.465 408.046 191.559 408.046 191.559 L 391.973 187.461 Z" fill="#a0616a" style=""/>
  <path d="M 342.472 12.7 C 337.891 12.505 332.989 12.407 329.126 15.344 C 327.349 16.819 325.791 18.635 324.514 20.717 C 320.751 26.376 317.503 33.495 318.898 40.516 L 320.522 39.762 C 320.522 41.635 320.172 43.489 319.497 45.181 C 319.726 44.389 320.49 45.668 320.286 46.467 L 318.497 53.448 C 321.438 52.166 325.092 54.761 325.539 58.446 C 325.743 50.34 326.45 41.047 331.978 36.299 C 334.766 33.906 338.292 33.175 341.686 32.527 C 344.815 31.93 348.097 31.357 351.095 32.585 C 354.095 33.81 356.648 37.458 355.968 41.146 C 357.349 40.577 358.897 41.725 359.581 43.264 C 360.266 44.8 360.301 46.616 360.322 48.356 C 361.794 49.596 363.472 47.134 364.072 45.107 C 365.484 40.356 366.735 35.297 365.976 30.337 C 365.216 25.379 361.82 20.638 357.584 20.623 C 358.1 19.952 358.373 19.067 358.349 18.16 L 354.858 17.808 C 355.742 17.66 356.559 17.148 357.162 16.361 C 355.761 18.199 344.74 12.798 342.472 12.7 Z" fill="#2f2e41" style=""/>
  <path d="M 341.458 85.014 C 341.458 85.014 332.113 74.116 328.749 74.783 C 325.385 75.452 320.794 85.014 320.794 85.014 C 320.794 85.014 293.238 95.94 294.388 106.87 C 295.537 117.797 308.164 171.069 308.164 171.069 C 308.164 171.069 318.497 235.27 309.314 242.101 C 300.128 248.929 352.938 266.687 354.087 258.491 C 355.234 250.295 357.531 168.339 354.087 156.043 C 350.643 143.749 341.458 85.014 341.458 85.014 Z" style="fill: rgb(29, 53, 87);"/>
  <path d="M 381.64 106.87 L 395.834 106.87 C 395.834 106.87 405.749 158.774 406.896 164.24 C 408.046 169.703 410.341 195.655 409.193 195.655 C 408.046 195.655 385.085 190.192 385.085 194.291 L 381.64 106.87 Z" style="fill: rgb(29, 53, 87);"/>
  <path d="M 381.158 235.406 L 326.816 235.406 C 321.511 206.381 321.069 178.337 326.816 151.541 L 381.158 151.541 C 372.389 177.854 371.842 205.705 381.158 235.406 Z" style="fill: rgb(241, 250, 238);"/>
  <path d="M 304.722 199.756 L 320.794 207.95 C 320.794 207.95 351.791 213.417 351.791 198.388 C 351.791 183.362 320.794 191.559 320.794 191.559 L 310.461 187.628 L 304.722 199.756 Z" fill="#a0616a" style=""/>
  <path d="M 308.164 98.674 L 294.388 102.769 L 284.055 175.168 C 284.055 175.168 280.613 194.291 286.35 195.655 C 292.093 197.023 308.164 207.95 308.164 207.95 C 308.164 207.95 310.461 187.461 315.052 187.461 L 303.572 176.534 L 310.461 128.724 L 308.164 98.674 Z" style="fill: rgb(29, 53, 87);"/>
  <rect x="38.007" y="238.55" width="75.33" height="1.282" fill="#f2f2f2" style=""/>
  <rect x="58.454" y="227.027" width="1.078" height="11.845" fill="#f2f2f2" style=""/>
  <rect x="91.276" y="227.027" width="1.078" height="11.845" fill="#f2f2f2" style=""/>
  <rect x="64.373" y="49.049" width="75.33" height="1.282" fill="#f2f2f2" style=""/>
  <rect x="118.179" y="50.009" width="1.078" height="11.845" fill="#f2f2f2" style=""/>
  <rect x="85.358" y="50.009" width="1.078" height="11.845" fill="#f2f2f2" style=""/>
  <rect x="140.24" y="175.169" width="75.33" height="1.282" fill="#f2f2f2" style=""/>
  <rect x="194.046" y="176.128" width="1.078" height="11.845" fill="#f2f2f2" style=""/>
  <rect x="161.224" y="176.128" width="1.078" height="11.845" fill="#f2f2f2" style=""/>
  <rect x="12.18" y="174.529" width="75.33" height="1.282" fill="#f2f2f2" style=""/>
  <rect x="65.988" y="175.489" width="1.078" height="11.845" fill="#f2f2f2" style=""/>
  <rect x="33.166" y="175.489" width="1.078" height="11.845" fill="#f2f2f2" style=""/>
  <rect x="102.573" y="110.507" width="75.33" height="1.282" fill="#f2f2f2" style=""/>
  <rect x="123.02" y="98.984" width="1.078" height="11.845" fill="#f2f2f2" style=""/>
  <rect x="155.842" y="98.984" width="1.078" height="11.845" fill="#f2f2f2" style=""/>
</svg>